<?xml version="1.0" encoding="utf-8"?>
<!-- Generator: Adobe Illustrator 18.1.1, SVG Export Plug-In . SVG Version: 6.00 Build 0)  -->
<svg version="1.1" id="Calque_1" xmlns="http://www.w3.org/2000/svg" xmlns:xlink="http://www.w3.org/1999/xlink" x="0px" y="0px"
	 viewBox="0 0 100 100" enable-background="new 0 0 100 100" xml:space="preserve">
<path fill="#D2DEE7" d="M96.2,31.2h-5.4c-0.6,0-0.5-0.9-0.5-0.9v-2.7c0-3.6-2.9-6.5-6.5-6.5H39.4c-0.3,0-0.7-0.6-1.3-1.9
	c-0.1-0.2-0.2-0.4-0.3-0.6c-2.3-4.3-5.2-5.2-7.3-5.2H19c-2.9,0-4.7,1.7-6.7,5c-0.1,0.2-0.3,0.4-0.4,0.7c-0.7,1.1-1.2,1.9-1.5,1.9H7
	c-3.6,0-6.5,2.9-6.5,6.5v53.9c0,3.2,2.3,5.8,5.3,6.4C6.2,88,6.6,88,7,88h79.1c2.1,0,4.2-1.7,4.6-3.8L99.4,35
	C99.8,32.9,98.3,31.2,96.2,31.2L96.2,31.2z M7,26.3h3.4c3.4,0,5-2.7,6-4.4c0.1-0.2,0.2-0.4,0.4-0.6c1-1.7,1.9-2.6,2.9-2.6h11
	c0.3,0,1.4,0,2.7,2.4c0.1,0.2,0.2,0.3,0.3,0.5c1,1.9,2.4,4.7,5.9,4.7h44.3c0.7,0,1.3,0.6,1.3,1.3v2.6c0,0,0.1,1-0.5,1H17.1
	c-2.1,0-4.2,1.7-4.6,3.8L6.1,71.6c0,0-0.3,1.2-0.3-1v-43C5.7,26.9,6.3,26.3,7,26.3L7,26.3z M7,26.3"/>
</svg>
