<?xml version="1.0" encoding="utf-8"?>
<!-- Generator: Adobe Illustrator 18.1.1, SVG Export Plug-In . SVG Version: 6.00 Build 0)  -->
<svg version="1.1" id="Calque_1" xmlns="http://www.w3.org/2000/svg" xmlns:xlink="http://www.w3.org/1999/xlink" x="0px" y="0px"
	 viewBox="0 0 110 110" enable-background="new 0 0 110 110" xml:space="preserve">
<circle fill="#FFFFFF" stroke="#363636" stroke-width="6" stroke-miterlimit="10" cx="55" cy="55" r="50"/>
<g display="none">
	<path display="inline" fill="#363636" d="M68,52.9c-3.2,3.7-7.9,6-13.2,6c-5.2,0-9.8-2.3-13-5.8C26.6,58,16,71.6,16,88.8
		c0,0,17.1,16.2,39,16.2s38.7-16.9,38.7-16.9C93.7,70.8,83.2,57.6,68,52.9z"/>
</g>
<g>
	<path fill="#363636" d="M66,59.2c-3,2.4-6.8,3.9-11,3.9c-4.2,0-8-1.5-11-3.9C34.4,64.7,27.3,77,27.3,91.4c0,19.5,55.4,19.5,55.4,0
		C82.7,77,75.6,64.7,66,59.2z"/>
</g>
<circle fill="#363636" cx="55" cy="41.7" r="17.5"/>
</svg>
