<?xml version="1.0" encoding="utf-8"?>
<!-- Generator: Adobe Illustrator 18.1.1, SVG Export Plug-In . SVG Version: 6.00 Build 0)  -->
<svg version="1.1" id="Calque_1" xmlns="http://www.w3.org/2000/svg" xmlns:xlink="http://www.w3.org/1999/xlink" x="0px" y="0px"
	 viewBox="0 0 100 100" enable-background="new 0 0 100 100" xml:space="preserve">
<g>
	<path fill="#00767F" d="M58.8,22.3h12.7l0,14.8l6.4-10v-8.4c0-0.5-0.2-1-0.6-1.4L60.9,1c-0.4-0.4-0.9-0.6-1.4-0.6H8.7
		C5.5,0.4,2.9,3,2.9,6.2v87.6c0,3.2,2.6,5.8,5.8,5.8h63.4c3.2,0,5.8-2.6,5.8-5.8V68.9l-6.4,9.9l0,14.4H9.4V6.8h47v13.1
		C56.4,21.2,57.4,22.3,58.8,22.3L58.8,22.3z M58.8,22.3"/>
	<path fill="#00767F" d="M85.1,46.5l-2.7-1.7c-0.4-0.3-1-0.2-1.3,0.3L66.8,67l-2.8-1.8l14.3-21.9c0.3-0.4,0.2-1-0.3-1.3l-2.7-1.7
		c-0.4-0.3-1-0.2-1.3,0.3L52.7,73.3c-0.1,0.1-0.1,0.3-0.2,0.5L52,85.2c0,0.3,0.1,0.7,0.4,0.8c0.3,0.2,0.6,0.2,0.9,0.1L63.6,81
		c0.2-0.1,0.3-0.2,0.4-0.3l21.5-32.8C85.7,47.4,85.6,46.8,85.1,46.5L85.1,46.5z M85.1,46.5"/>
	<path fill="#00767F" d="M93.9,33l-9.7-6.3c-0.4-0.3-1-0.2-1.3,0.3l-6.5,10c-0.3,0.4-0.2,1,0.3,1.3l9.7,6.3c0.4,0.3,1,0.2,1.3-0.3
		l6.5-10C94.5,33.9,94.3,33.3,93.9,33L93.9,33z M93.9,33"/>
	<path fill="#00767F" d="M18.8,21.1h18.4c1.3,0,2.4-1.1,2.4-2.4s-1.1-2.4-2.4-2.4H18.8c-1.3,0-2.4,1.1-2.4,2.4S17.5,21.1,18.8,21.1
		L18.8,21.1z M18.8,21.1"/>
	<path fill="#00767F" d="M53.7,30.5c0-1.3-1.1-2.4-2.4-2.4H18.8c-1.3,0-2.4,1.1-2.4,2.4s1.1,2.4,2.4,2.4h32.6
		C52.7,32.9,53.7,31.8,53.7,30.5L53.7,30.5z M53.7,30.5"/>
	<path fill="#00767F" d="M18.8,44.7h18.4c1.3,0,2.4-1.1,2.4-2.4c0-1.3-1.1-2.4-2.4-2.4H18.8c-1.3,0-2.4,1.1-2.4,2.4
		C16.4,43.6,17.5,44.7,18.8,44.7L18.8,44.7z M18.8,44.7"/>
	<path fill="#00767F" d="M18.8,56.5h18.4c1.3,0,2.4-1.1,2.4-2.4c0-1.3-1.1-2.4-2.4-2.4H18.8c-1.3,0-2.4,1.1-2.4,2.4
		C16.4,55.4,17.5,56.5,18.8,56.5L18.8,56.5z M18.8,56.5"/>
	<path fill="#00767F" d="M19.8,87c-0.5,0.6,0.4,1.4,0.8,0.8c1.5-1.9,2.7-3.9,3.7-6.1c0.6,0.4,1.5,0.3,2.1,0c1-0.4,1.8-1.1,2.6-1.8
		c0.5-0.4,1-1.1,1.7-1.1c0.5,0,1.2,0.4,1.7,0.4c1.3,0.2,2.8-0.2,4-0.5c1.2-0.3,2.6-0.8,3.3-1.8c0.4-0.6-0.6-1.2-1-0.6
		c-0.6,0.9-1.9,1.1-2.8,1.4c-1.1,0.3-2.3,0.5-3.4,0.3c-0.8-0.1-1.5-0.7-2.4-0.3c-1.2,0.5-2,1.6-3.1,2.3c-0.5,0.3-1,0.6-1.6,0.7
		c-0.2,0-0.4-0.1-0.6-0.2c0.1-0.3,0.3-0.6,0.4-0.9c1.2-2.9,1.7-5.8,2.2-8.8c0.3-1.5,0.7-3.9-1.5-4.1c-1.9-0.1-3.6,2.7-4.2,4.1
		c-0.6,1.3-0.6,2.8-0.6,4.3c0,0.9,0.3,1.8,0.6,2.7c-1.9,0.3-3.5,2.2-3.2,4c0.3,1.8,2.6,0.9,3.4,0.2c0.9-0.7,1.1-1.5,1.2-2.5
		c0.2,0.3,0.3,0.6,0.5,0.9C22.5,83,21.3,85.1,19.8,87L19.8,87z M21.8,80.3c-0.2,0.8-1.2,1.5-1.9,1.6c-0.6,0.1-0.2-1-0.1-1.3
		c0.4-0.8,1.3-1.3,2.1-1.5C21.9,79.6,21.9,80,21.8,80.3L21.8,80.3z M22.8,78c-0.2-0.9-0.5-1.9-0.6-2.7c-0.1-1.6,0.2-3.4,1-4.8
		c0.5-0.9,1.6-2.3,2.7-2.4c1-0.1,0.4,2.3,0.3,2.8c-0.3,1.5-0.5,3-0.8,4.4c-0.3,1.4-0.8,2.7-1.3,4C23.8,78.7,23.5,78.2,22.8,78
		L22.8,78z M22.8,78"/>
</g>
</svg>
