<?xml version="1.0" encoding="utf-8"?>
<!-- Generator: Adobe Illustrator 18.1.1, SVG Export Plug-In . SVG Version: 6.00 Build 0)  -->
<svg version="1.1" id="Calque_1" xmlns="http://www.w3.org/2000/svg" xmlns:xlink="http://www.w3.org/1999/xlink" x="0px" y="0px"
	 viewBox="0 0 100 100" enable-background="new 0 0 100 100" xml:space="preserve">
<g>
	<g>
		<defs>
			<rect id="SVGID_1_" x="0.4" y="0.2" width="99.2" height="99.5"/>
		</defs>
		<clipPath id="SVGID_2_">
			<use xlink:href="#SVGID_1_"  overflow="visible"/>
		</clipPath>
		<path clip-path="url(#SVGID_2_)" fill="#00767F" d="M96.6,31.7L66.3,1.3c-1.5-1.5-3.9-1.5-5.4,0L49.7,12.6l-42,42h0v0l-0.8,0.8
			c-0.6,0.6-0.9,1.3-1.1,2.1L0.4,93.2c-0.2,1.2,0.2,2.4,1.1,3.2c0.7,0.7,1.7,1.1,2.7,1.1c0.2,0,0.4,0,0.6,0l35.7-5.3
			c0.8-0.1,1.5-0.5,2.1-1.1l42.9-42.9L96.6,37C98.1,35.5,98.1,33.1,96.6,31.7L96.6,31.7z M40.7,82.3l-5-5l36.7-36.7l5,5L40.7,82.3z
			 M10.3,78.5l2.1-13.9l21,21l-13.9,2.1L10.3,78.5z M67,35.2L30.3,71.9L26,67.6l36.7-36.7L67,35.2z M52.4,20.6l5,5L20.7,62.3l-5-5
			L52.4,20.6z M82.7,40.2l-7.7-7.7h0L57.7,15.2l5.9-5.9l25,25L82.7,40.2z M82.7,40.2"/>
	</g>
</g>
</svg>
