<?xml version="1.0" encoding="utf-8"?>
<!-- Generator: Adobe Illustrator 18.1.1, SVG Export Plug-In . SVG Version: 6.00 Build 0)  -->
<svg version="1.1" id="Calque_1" xmlns="http://www.w3.org/2000/svg" xmlns:xlink="http://www.w3.org/1999/xlink" x="0px" y="0px"
	 viewBox="0 0 100 100" enable-background="new 0 0 100 100" xml:space="preserve">
<g>
	<g>
		<defs>
			<rect id="SVGID_1_" x="0.6" y="12" width="98.9" height="76.9"/>
		</defs>
		<clipPath id="SVGID_2_">
			<use xlink:href="#SVGID_1_"  overflow="visible"/>
		</clipPath>
	</g>
</g>
<g>
	<g>
		<defs>
			<rect id="SVGID_3_" x="0.4" y="5" width="99.2" height="92.5"/>
		</defs>
		<clipPath id="SVGID_4_">
			<use xlink:href="#SVGID_3_"  overflow="visible"/>
		</clipPath>
		<path clip-path="url(#SVGID_4_)" fill="#00767F" d="M97.8,46.7l-15-15V14.3c0-3.1-2.5-5.7-5.7-5.7c-3.1,0-5.7,2.5-5.7,5.7v6
			L60.2,9.1c-5.5-5.5-15.1-5.5-20.7,0L2,46.7c-2.2,2.2-2.2,5.8,0,8c2.2,2.2,5.8,2.2,8,0l37.5-37.5c1.2-1.2,3.4-1.2,4.6,0l37.5,37.5
			c1.1,1.1,2.6,1.7,4,1.7c1.5,0,2.9-0.6,4-1.7C100,52.5,100,48.9,97.8,46.7L97.8,46.7z M97.8,46.7"/>
	</g>
	<path fill="#00767F" d="M51.9,27.9c-1.1-1.1-2.9-1.1-3.9,0l-33,33c-0.5,0.5-0.8,1.2-0.8,2V87c0,5.6,4.6,10.2,10.2,10.2h16.3V71.9
		h18.5v25.3h16.4c5.6,0,10.2-4.6,10.2-10.2V62.9c0-0.7-0.3-1.5-0.8-2L51.9,27.9z M51.9,27.9"/>
</g>
</svg>
