<?xml version="1.0" encoding="utf-8"?>
<!-- Generator: Adobe Illustrator 18.1.1, SVG Export Plug-In . SVG Version: 6.00 Build 0)  -->
<svg version="1.1" id="Calque_1" xmlns="http://www.w3.org/2000/svg" xmlns:xlink="http://www.w3.org/1999/xlink" x="0px" y="0px"
	 viewBox="0 0 100 100" enable-background="new 0 0 100 100" xml:space="preserve">
<path fill="#FFFFFF" d="M38.5,61.6c8.8,8.7,19,17.1,23,13.1c5.7-5.8,9.3-10.8,22-0.7c12.7,10.2,3,17-2.6,22.6
	c-6.4,6.5-30.4,0.4-54.2-23.2C3,49.8-3.2,25.8,3.2,19.4C8.8,13.8,15.5,4,25.8,16.7c10.3,12.7,5.3,16.2-0.5,22
	C21.3,42.7,29.7,52.9,38.5,61.6L38.5,61.6z M51.3,19.8c0,0-2.7-0.4-4.5,1.4c-1.9,1.9-2,5.2,0,7.2c1.2,1.2,2.9,1.4,2.9,1.4
	c3.3,0.6,8.2,1.7,13.5,6.9c5.3,5.3,6.3,10.2,6.9,13.5c0,0,0.3,1.7,1.4,2.9c2,2,5.3,1.9,7.2,0c1.9-1.9,1.5-4.5,1.5-4.5
	c-1-6.6-4.3-13.6-9.8-19.1C64.9,24.1,58,20.9,51.3,19.8L51.3,19.8z M76.3,23.8c9.6,9.6,13.8,20.6,12.4,29.5c0,0-0.5,2.8,1.4,4.6
	c2.1,2.1,5.3,2,7.3,0c1.2-1.2,1.5-3.3,1.5-3.3c1.1-7.7-0.3-23.1-15.3-38.1c-15-15-30.5-16.4-38.1-15.3c0,0-2,0.3-3.3,1.5
	c-1.9,1.9-2.1,5.2,0,7.3c1.8,1.8,4.6,1.4,4.6,1.4C55.7,10.1,66.6,14.2,76.3,23.8L76.3,23.8z M76.3,23.8"/>
</svg>
