<?xml version="1.0" encoding="utf-8"?>
<!-- Generator: Adobe Illustrator 18.1.1, SVG Export Plug-In . SVG Version: 6.00 Build 0)  -->
<svg version="1.1" id="Calque_1" xmlns="http://www.w3.org/2000/svg" xmlns:xlink="http://www.w3.org/1999/xlink" x="0px" y="0px"
	 viewBox="0 0 100 100" enable-background="new 0 0 100 100" xml:space="preserve">
<g>
	<g>
		<defs>
			<rect id="SVGID_1_" x="0.6" y="12" width="98.9" height="76.9"/>
		</defs>
		<clipPath id="SVGID_2_">
			<use xlink:href="#SVGID_1_"  overflow="visible"/>
		</clipPath>
	</g>
</g>
<path fill="#912D43" d="M38.5,61.7c8.9,8.8,19.1,17.2,23.1,13.1c5.8-5.8,9.3-10.9,22.1-0.7c12.8,10.2,3,17.1-2.6,22.7
	c-6.4,6.5-30.6,0.5-54.5-23.3C2.8,49.8-3.5,25.7,3,19.2c5.6-5.6,12.4-15.4,22.7-2.7c10.3,12.7,5.3,16.3-0.5,22.1
	C21.1,42.7,29.6,52.9,38.5,61.7L38.5,61.7z M51.3,19.7c0,0-2.7-0.4-4.5,1.5c-1.9,1.9-2,5.2,0,7.3c1.2,1.2,2.9,1.5,2.9,1.5
	c3.3,0.6,8.3,1.7,13.6,6.9c5.3,5.3,6.3,10.3,6.9,13.6c0,0,0.3,1.7,1.5,2.9c2,2,5.4,1.9,7.3,0c1.9-1.9,1.5-4.5,1.5-4.5
	c-1.1-6.7-4.3-13.7-9.9-19.2C65,24,58,20.8,51.3,19.7L51.3,19.7z M76.4,23.7c9.7,9.7,13.8,20.7,12.5,29.6c0,0-0.5,2.8,1.4,4.7
	c2.1,2.1,5.4,2,7.3,0c1.2-1.2,1.5-3.3,1.5-3.3c1.1-7.7-0.3-23.2-15.4-38.3C68.6,1.3,53.1-0.1,45.4,1c0,0-2,0.3-3.3,1.5
	c-1.9,1.9-2.1,5.2,0,7.3c1.8,1.8,4.7,1.4,4.7,1.4C55.7,9.9,66.7,14,76.4,23.7L76.4,23.7z M76.4,23.7"/>
</svg>
