<?xml version="1.0" encoding="utf-8"?>
<!-- Generator: Adobe Illustrator 18.1.1, SVG Export Plug-In . SVG Version: 6.00 Build 0)  -->
<svg version="1.1" id="Calque_1" xmlns="http://www.w3.org/2000/svg" xmlns:xlink="http://www.w3.org/1999/xlink" x="0px" y="0px"
	 viewBox="0 0 100 100" enable-background="new 0 0 100 100" xml:space="preserve">
<g>
	<path fill="#FFFFFF" d="M60,22.7h12.5l0,14.6l6.4-9.9v-8.3c0-0.5-0.2-1-0.6-1.3L62.1,1.6C61.8,1.3,61.3,1,60.8,1H10.6
		C7.5,1,4.9,3.6,4.9,6.8v86.5c0,3.2,2.6,5.7,5.7,5.7h62.5c3.2,0,5.7-2.6,5.7-5.7V68.7l-6.4,9.7l0,14.2H11.3V7.4h46.4v12.9
		C57.6,21.6,58.7,22.7,60,22.7L60,22.7z M60,22.7"/>
	<path fill="#FFFFFF" d="M86,46.5l-2.6-1.7c-0.4-0.3-1-0.2-1.3,0.3L67.9,66.7L65.2,65l14.1-21.6c0.3-0.4,0.2-1-0.3-1.3l-2.6-1.7
		c-0.4-0.3-1-0.2-1.3,0.3L54,73c-0.1,0.1-0.1,0.3-0.2,0.5l-0.6,11.3c0,0.3,0.1,0.6,0.4,0.8c0.3,0.2,0.6,0.2,0.9,0.1l10.1-5
		c0.1-0.1,0.3-0.2,0.4-0.3l21.2-32.4C86.5,47.4,86.4,46.8,86,46.5L86,46.5z M86,46.5"/>
	<path fill="#FFFFFF" d="M94.7,33.3L85.1,27c-0.4-0.3-1-0.2-1.3,0.3l-6.4,9.8c-0.3,0.4-0.2,1,0.3,1.3l9.5,6.2c0.4,0.3,1,0.2,1.3-0.3
		l6.4-9.8C95.2,34.1,95.1,33.5,94.7,33.3L94.7,33.3z M94.7,33.3"/>
	<path fill="#FFFFFF" d="M20.5,21.4h18.2c1.3,0,2.3-1,2.3-2.3s-1-2.3-2.3-2.3H20.5c-1.3,0-2.3,1-2.3,2.3S19.2,21.4,20.5,21.4
		L20.5,21.4z M20.5,21.4"/>
	<path fill="#FFFFFF" d="M55,30.8c0-1.3-1-2.3-2.3-2.3H20.5c-1.3,0-2.3,1-2.3,2.3c0,1.3,1,2.3,2.3,2.3h32.2C54,33.1,55,32,55,30.8
		L55,30.8z M55,30.8"/>
	<path fill="#FFFFFF" d="M20.5,44.7h18.2c1.3,0,2.3-1,2.3-2.3c0-1.3-1-2.3-2.3-2.3H20.5c-1.3,0-2.3,1-2.3,2.3
		C18.2,43.7,19.2,44.7,20.5,44.7L20.5,44.7z M20.5,44.7"/>
	<path fill="#FFFFFF" d="M20.5,56.4h18.2c1.3,0,2.3-1,2.3-2.3c0-1.3-1-2.3-2.3-2.3H20.5c-1.3,0-2.3,1-2.3,2.3
		C18.2,55.4,19.2,56.4,20.5,56.4L20.5,56.4z M20.5,56.4"/>
	<path fill="#FFFFFF" d="M21.5,86.5c-0.5,0.6,0.4,1.4,0.8,0.8c1.4-1.9,2.6-3.9,3.6-6c0.6,0.4,1.4,0.3,2.1,0c1-0.4,1.8-1.1,2.6-1.8
		c0.5-0.4,1-1,1.6-1.1c0.5,0,1.1,0.3,1.6,0.4c1.3,0.2,2.8-0.2,4-0.5c1.2-0.3,2.5-0.7,3.2-1.8c0.4-0.6-0.6-1.2-1-0.6
		c-0.5,0.8-1.9,1.1-2.8,1.3c-1.1,0.3-2.3,0.5-3.4,0.3c-0.8-0.1-1.5-0.6-2.3-0.3c-1.1,0.5-2,1.6-3,2.3c-0.5,0.3-1,0.6-1.5,0.7
		c-0.2,0-0.4-0.1-0.6-0.2c0.1-0.3,0.2-0.6,0.4-0.9c1.1-2.8,1.7-5.7,2.2-8.7c0.3-1.5,0.7-3.9-1.5-4c-1.9-0.1-3.6,2.6-4.2,4.1
		c-0.5,1.3-0.6,2.8-0.6,4.2c0,0.9,0.3,1.8,0.6,2.7c-1.8,0.3-3.5,2.1-3.2,4c0.3,1.8,2.5,0.9,3.4,0.2c0.9-0.7,1.1-1.5,1.1-2.4
		c0.2,0.3,0.3,0.6,0.5,0.9C24.2,82.5,23,84.6,21.5,86.5L21.5,86.5z M23.6,79.9c-0.2,0.8-1.1,1.5-1.9,1.6c-0.6,0.1-0.2-1-0.1-1.3
		c0.4-0.8,1.3-1.2,2.1-1.5C23.6,79.2,23.6,79.6,23.6,79.9L23.6,79.9z M24.5,77.7c-0.2-0.9-0.5-1.9-0.5-2.7c-0.1-1.6,0.2-3.3,1-4.8
		c0.5-0.9,1.5-2.3,2.6-2.4c1-0.1,0.4,2.3,0.3,2.7c-0.3,1.5-0.4,2.9-0.8,4.4c-0.3,1.3-0.8,2.7-1.3,4C25.5,78.3,25.1,77.8,24.5,77.7
		L24.5,77.7z M24.5,77.7"/>
</g>
</svg>
