<?xml version="1.0" encoding="utf-8"?>
<!-- Generator: Adobe Illustrator 18.1.1, SVG Export Plug-In . SVG Version: 6.00 Build 0)  -->
<svg version="1.1" id="Calque_1" xmlns="http://www.w3.org/2000/svg" xmlns:xlink="http://www.w3.org/1999/xlink" x="0px" y="0px"
	 viewBox="0 0 100 100" enable-background="new 0 0 100 100" xml:space="preserve">
<path fill="#FFFFFF" d="M97.9,32.6L67.4,2.1c-1.5-1.5-3.9-1.5-5.4,0L50.7,13.4L8.3,55.8h0v0l-0.8,0.8c-0.6,0.6-1,1.3-1.1,2.1L1,94.7
	c-0.2,1.2,0.2,2.4,1.1,3.3C2.8,98.7,3.8,99,4.7,99c0.2,0,0.4,0,0.6,0l36-5.4c0.8-0.1,1.6-0.5,2.1-1.1l43.2-43.2L97.9,38
	C99.4,36.5,99.4,34.1,97.9,32.6L97.9,32.6z M41.5,83.6l-5-5l37-37l5,5.1L41.5,83.6z M10.9,79.9l2.1-14L34.1,87l-14,2.1L10.9,79.9z
	 M68.1,36.2l-37,37l-4.3-4.3l37-37L68.1,36.2z M53.3,21.5l5.1,5l-37,37l-5.1-5.1L53.3,21.5z M83.9,41.3l-7.7-7.7h0L58.7,16.1
	l5.9-5.9l25.2,25.2L83.9,41.3z M83.9,41.3"/>
</svg>
