<?xml version="1.0" encoding="utf-8"?>
<!-- Generator: Adobe Illustrator 18.1.1, SVG Export Plug-In . SVG Version: 6.00 Build 0)  -->
<svg version="1.1" id="Calque_1" xmlns="http://www.w3.org/2000/svg" xmlns:xlink="http://www.w3.org/1999/xlink" x="0px" y="0px"
	 viewBox="0 0 100 100" enable-background="new 0 0 100 100" xml:space="preserve">
<path fill="#FFFFFF" d="M97.7,45.6l-15-15V13.3c0-3.1-2.5-5.7-5.7-5.7c-3.1,0-5.7,2.5-5.7,5.7v6L60.3,8.1c-5.5-5.5-15.1-5.5-20.6,0
	L2.3,45.6c-2.2,2.2-2.2,5.8,0,8c2.2,2.2,5.8,2.2,8,0l37.4-37.4c1.2-1.2,3.4-1.2,4.6,0l37.4,37.4c1.1,1.1,2.6,1.7,4,1.7
	c1.4,0,2.9-0.6,4-1.7C99.9,51.4,99.9,47.8,97.7,45.6L97.7,45.6z M97.7,45.6"/>
<path fill="#FFFFFF" d="M52,26.9c-1.1-1.1-2.8-1.1-3.9,0L15.1,59.8c-0.5,0.5-0.8,1.2-0.8,2v24c0,5.6,4.6,10.2,10.2,10.2h16.3V70.7
	h18.4V96h16.3c5.6,0,10.2-4.6,10.2-10.2v-24c0-0.7-0.3-1.4-0.8-2L52,26.9z M52,26.9"/>
</svg>
