<?xml version="1.0" encoding="utf-8"?>
<!-- Generator: Adobe Illustrator 18.1.1, SVG Export Plug-In . SVG Version: 6.00 Build 0)  -->
<svg version="1.1" id="Calque_1" xmlns="http://www.w3.org/2000/svg" xmlns:xlink="http://www.w3.org/1999/xlink" x="0px" y="0px"
	 viewBox="0 0 100 100" enable-background="new 0 0 100 100" xml:space="preserve">
<path fill="#363636" d="M31.1,10.5h30.4c0.8,0,1.4-0.9,1.4-2.1c0-1.2-0.6-2.1-1.4-2.1H31.1c-0.8,0-1.4,0.9-1.4,2.1
	C29.7,9.5,30.3,10.5,31.1,10.5L31.1,10.5z M31.1,10.5"/>
<path fill="#363636" d="M3.9,31.1h30.4c0.8,0,1.4-0.9,1.4-2.1c0-1.2-0.6-2.1-1.4-2.1H3.9c-0.8,0-1.4,0.9-1.4,2.1
	C2.4,30.1,3.1,31.1,3.9,31.1L3.9,31.1z M3.9,31.1"/>
<path fill="#363636" d="M12.1,52.7c0,1.2,0.6,2.1,1.4,2.1h30.4c0.8,0,1.4-0.9,1.4-2.1c0-1.2-0.6-2.1-1.4-2.1H13.5
	C12.7,50.6,12.1,51.6,12.1,52.7L12.1,52.7z M12.1,52.7"/>
<path fill="#363636" d="M29.5,77.2H2.1c-0.8,0-1.4,0.9-1.4,2.1c0,1.2,0.6,2.1,1.4,2.1h27.3c0.8,0,1.4-0.9,1.4-2.1
	C30.9,78.2,30.3,77.2,29.5,77.2L29.5,77.2z M29.5,77.2"/>
<path fill="#363636" d="M78.7,23.7c4.4,0,7.9-5.2,7.9-11.5S83,0.7,78.7,0.7c-4.4,0-7.9,5.2-7.9,11.5C70.8,18.5,74.3,23.7,78.7,23.7
	L78.7,23.7z M78.7,23.7"/>
<path fill="#363636" d="M91.7,20.4c-4.5,9.3-10.6,10.3-17.2,4.7c-0.4-0.4-2.4-2-2.9-2.3c-10.5-9.1-21-5.5-28.1,8.8
	c-3,6.1,3.9,11.9,6.9,5.9c3.6-7.4,8.3-9.6,13.3-7.2c-2.6,6.5-4.9,13.1-8.1,22.3c-3.2,9.2-10.3,16.6-17.1,10.9
	c-4.9-4.2-9.3,6.1-4.4,10.2c9.3,7.9,20.1,3,25.7-7.2c0.2,0.1,0.4,0.3,0.6,0.4c4.5,2.3,10.5,8.4,12.3,10.6c1.8,2.2,4.9,13.2,6.8,18.8
	c2.2,6.7,9.5,1.8,7.2-4.9c-2.1-6.3-5.6-18.9-8.3-22c-2.2-2.5-6.5-7.3-10.1-10c2.4-6.9,5-13.7,7.7-20.4c8.6,3.8,16.7-0.7,22.5-12.5
	C101.6,20.1,94.6,14.3,91.7,20.4L91.7,20.4z M91.7,20.4"/>
</svg>
