<?xml version="1.0" encoding="utf-8"?>
<!-- Generator: Adobe Illustrator 18.1.1, SVG Export Plug-In . SVG Version: 6.00 Build 0)  -->
<svg version="1.1" id="Calque_1" xmlns="http://www.w3.org/2000/svg" xmlns:xlink="http://www.w3.org/1999/xlink" x="0px" y="0px"
	 viewBox="0 0 100 100" enable-background="new 0 0 100 100" xml:space="preserve">
<path fill="#FFFFFF" d="M95.8,30.6h-5.4c-0.6,0-0.5-0.9-0.5-0.9V27c0-3.5-2.9-6.4-6.4-6.4h-44c-0.3,0-0.7-0.6-1.3-1.8
	c-0.1-0.2-0.2-0.4-0.3-0.6c-2.2-4.3-5.2-5.1-7.2-5.1H19.3c-2.9,0-4.6,1.7-6.7,5c-0.1,0.2-0.3,0.4-0.4,0.7c-0.7,1.1-1.1,1.9-1.5,1.9
	H7.3c-3.5,0-6.4,2.9-6.4,6.4v53.5c0,3.1,2.3,5.8,5.3,6.3C6.5,86.9,6.9,87,7.3,87h78.5c2.1,0,4.2-1.7,4.5-3.8L99,34.4
	C99.4,32.3,98,30.6,95.8,30.6L95.8,30.6z M7.3,25.7h3.3c3.3,0,4.9-2.7,6-4.4c0.1-0.2,0.2-0.4,0.4-0.6c1-1.7,1.8-2.5,2.8-2.5h10.9
	c0.3,0,1.4,0,2.6,2.4c0.1,0.2,0.2,0.3,0.3,0.5c0.9,1.8,2.4,4.6,5.9,4.6h44c0.7,0,1.3,0.6,1.3,1.3v2.6c0,0,0.1,1-0.5,1H17.4
	c-2.1,0-4.2,1.7-4.5,3.8L6.4,70.7c0,0-0.3,1.2-0.3-1V27C6.1,26.3,6.6,25.7,7.3,25.7L7.3,25.7z M7.3,25.7"/>
</svg>
