<?xml version="1.0" encoding="utf-8"?>
<!-- Generator: Adobe Illustrator 18.1.1, SVG Export Plug-In . SVG Version: 6.00 Build 0)  -->
<svg version="1.1" id="Calque_1" xmlns="http://www.w3.org/2000/svg" xmlns:xlink="http://www.w3.org/1999/xlink" x="0px" y="0px"
	 viewBox="0 0 100 100" enable-background="new 0 0 100 100" xml:space="preserve">
<path fill="#363636" d="M50,52.9c12.2,0,22.1-11.6,22.1-25.9C72.1,7.2,62.2,1.1,50,1.1C37.8,1.1,27.9,7.2,27.9,27
	C27.9,41.3,37.8,52.9,50,52.9L50,52.9z M50,52.9"/>
<path fill="#363636" d="M98.9,91.1L87.7,65.9c-0.5-1.2-1.4-2.1-2.5-2.7l-17.3-9C67.5,54,67,54,66.7,54.3C61.8,58,56,60,50,60
	c-6,0-11.8-2-16.7-5.7C33,54,32.5,54,32.1,54.2l-17.3,9c-1.1,0.6-2,1.5-2.5,2.7L1.1,91.1c-0.8,1.7-0.6,3.7,0.4,5.3
	c1,1.6,2.8,2.5,4.7,2.5h87.6c1.9,0,3.6-0.9,4.7-2.5C99.5,94.8,99.7,92.8,98.9,91.1L98.9,91.1z M98.9,91.1"/>
</svg>
